<svg width="168" height="36" viewBox="0 0 168 36" fill="none" xmlns="http://www.w3.org/2000/svg">
<path d="M26.032 17.624C26.032 15.992 26.4 14.528 27.136 13.232C27.872 11.92 28.872 10.896 30.136 10.16C31.416 9.424 32.832 9.056 34.384 9.056C36.208 9.056 37.8 9.496 39.16 10.376C40.52 11.256 41.512 12.504 42.136 14.12H39.52C39.056 13.112 38.384 12.336 37.504 11.792C36.64 11.248 35.6 10.976 34.384 10.976C33.216 10.976 32.168 11.248 31.24 11.792C30.312 12.336 29.584 13.112 29.056 14.12C28.528 15.112 28.264 16.28 28.264 17.624C28.264 18.952 28.528 20.12 29.056 21.128C29.584 22.12 30.312 22.888 31.24 23.432C32.168 23.976 33.216 24.248 34.384 24.248C35.6 24.248 36.64 23.984 37.504 23.456C38.384 22.912 39.056 22.136 39.52 21.128H42.136C41.512 22.728 40.52 23.968 39.16 24.848C37.8 25.712 36.208 26.144 34.384 26.144C32.832 26.144 31.416 25.784 30.136 25.064C28.872 24.328 27.872 23.312 27.136 22.016C26.4 20.72 26.032 19.256 26.032 17.624ZM47.5711 8.24V26H45.3871V8.24H47.5711ZM52.4213 10.712C52.0053 10.712 51.6533 10.568 51.3653 10.28C51.0773 9.992 50.9333 9.64 50.9333 9.224C50.9333 8.808 51.0773 8.456 51.3653 8.168C51.6533 7.88 52.0053 7.736 52.4213 7.736C52.8213 7.736 53.1573 7.88 53.4293 8.168C53.7173 8.456 53.8613 8.808 53.8613 9.224C53.8613 9.64 53.7173 9.992 53.4293 10.28C53.1573 10.568 52.8213 10.712 52.4213 10.712ZM53.4773 12.848V26H51.2933V12.848H53.4773ZM63.6076 12.608C65.2076 12.608 66.5036 13.096 67.4956 14.072C68.4876 15.032 68.9836 16.424 68.9836 18.248V26H66.8236V18.56C66.8236 17.248 66.4956 16.248 65.8396 15.56C65.1836 14.856 64.2876 14.504 63.1516 14.504C61.9996 14.504 61.0796 14.864 60.3916 15.584C59.7196 16.304 59.3836 17.352 59.3836 18.728V26H57.1996V12.848H59.3836V14.72C59.8156 14.048 60.3996 13.528 61.1356 13.16C61.8876 12.792 62.7116 12.608 63.6076 12.608ZM73.6791 10.712C73.2631 10.712 72.9111 10.568 72.6231 10.28C72.3351 9.992 72.1911 9.64 72.1911 9.224C72.1911 8.808 72.3351 8.456 72.6231 8.168C72.9111 7.88 73.2631 7.736 73.6791 7.736C74.0791 7.736 74.4151 7.88 74.6871 8.168C74.9751 8.456 75.1191 8.808 75.1191 9.224C75.1191 9.64 74.9751 9.992 74.6871 10.28C74.4151 10.568 74.0791 10.712 73.6791 10.712ZM74.7351 12.848V26H72.5511V12.848H74.7351ZM89.6414 14.168C89.6414 15.56 89.1614 16.72 88.2014 17.648C87.2574 18.56 85.8094 19.016 83.8574 19.016H80.6414V26H78.4574V9.272H83.8574C85.7454 9.272 87.1774 9.728 88.1534 10.64C89.1454 11.552 89.6414 12.728 89.6414 14.168ZM83.8574 17.216C85.0734 17.216 85.9694 16.952 86.5454 16.424C87.1214 15.896 87.4094 15.144 87.4094 14.168C87.4094 12.104 86.2254 11.072 83.8574 11.072H80.6414V17.216H83.8574ZM94.5398 8.24V26H92.3558V8.24H94.5398ZM97.4461 19.376C97.4461 18.032 97.7181 16.856 98.2621 15.848C98.8061 14.824 99.5501 14.032 100.494 13.472C101.454 12.912 102.518 12.632 103.686 12.632C104.838 12.632 105.838 12.88 106.686 13.376C107.534 13.872 108.166 14.496 108.582 15.248V12.848H110.79V26H108.582V23.552C108.15 24.32 107.502 24.96 106.638 25.472C105.79 25.968 104.798 26.216 103.662 26.216C102.494 26.216 101.438 25.928 100.494 25.352C99.5501 24.776 98.8061 23.968 98.2621 22.928C97.7181 21.888 97.4461 20.704 97.4461 19.376ZM108.582 19.4C108.582 18.408 108.382 17.544 107.982 16.808C107.582 16.072 107.038 15.512 106.35 15.128C105.678 14.728 104.934 14.528 104.118 14.528C103.302 14.528 102.558 14.72 101.886 15.104C101.214 15.488 100.678 16.048 100.278 16.784C99.8781 17.52 99.6781 18.384 99.6781 19.376C99.6781 20.384 99.8781 21.264 100.278 22.016C100.678 22.752 101.214 23.32 101.886 23.72C102.558 24.104 103.302 24.296 104.118 24.296C104.934 24.296 105.678 24.104 106.35 23.72C107.038 23.32 107.582 22.752 107.982 22.016C108.382 21.264 108.582 20.392 108.582 19.4ZM120.889 12.608C122.489 12.608 123.785 13.096 124.777 14.072C125.769 15.032 126.265 16.424 126.265 18.248V26H124.105V18.56C124.105 17.248 123.777 16.248 123.121 15.56C122.465 14.856 121.569 14.504 120.433 14.504C119.281 14.504 118.361 14.864 117.673 15.584C117.001 16.304 116.665 17.352 116.665 18.728V26H114.481V12.848H116.665V14.72C117.097 14.048 117.681 13.528 118.417 13.16C119.169 12.792 119.993 12.608 120.889 12.608ZM136.24 12.608C137.84 12.608 139.136 13.096 140.128 14.072C141.12 15.032 141.616 16.424 141.616 18.248V26H139.456V18.56C139.456 17.248 139.128 16.248 138.472 15.56C137.816 14.856 136.92 14.504 135.784 14.504C134.632 14.504 133.712 14.864 133.024 15.584C132.352 16.304 132.016 17.352 132.016 18.728V26H129.832V12.848H132.016V14.72C132.448 14.048 133.032 13.528 133.768 13.16C134.52 12.792 135.344 12.608 136.24 12.608ZM157.184 18.92C157.184 19.336 157.16 19.776 157.112 20.24H146.6C146.68 21.536 147.12 22.552 147.92 23.288C148.736 24.008 149.72 24.368 150.872 24.368C151.816 24.368 152.6 24.152 153.224 23.72C153.864 23.272 154.312 22.68 154.568 21.944H156.92C156.568 23.208 155.864 24.24 154.808 25.04C153.752 25.824 152.44 26.216 150.872 26.216C149.624 26.216 148.504 25.936 147.512 25.376C146.536 24.816 145.768 24.024 145.208 23C144.648 21.96 144.368 20.76 144.368 19.4C144.368 18.04 144.64 16.848 145.184 15.824C145.728 14.8 146.488 14.016 147.464 13.472C148.456 12.912 149.592 12.632 150.872 12.632C152.12 12.632 153.224 12.904 154.184 13.448C155.144 13.992 155.88 14.744 156.392 15.704C156.92 16.648 157.184 17.72 157.184 18.92ZM154.928 18.464C154.928 17.632 154.744 16.92 154.376 16.328C154.008 15.72 153.504 15.264 152.864 14.96C152.24 14.64 151.544 14.48 150.776 14.48C149.672 14.48 148.728 14.832 147.944 15.536C147.176 16.24 146.736 17.216 146.624 18.464H154.928ZM162.251 14.984C162.635 14.232 163.179 13.648 163.883 13.232C164.603 12.816 165.475 12.608 166.499 12.608V14.864H165.923C163.475 14.864 162.251 16.192 162.251 18.848V26H160.067V12.848H162.251V14.984Z" fill="black"/>
<path d="M19.9965 12.6423C19.9893 12.4941 19.9712 12.3361 19.9438 12.1756C19.8405 11.5694 19.5912 10.9916 19.2242 10.5026C18.5287 9.56801 17.4014 8.99266 16.2527 9.00007H11.2533V12.9905H15.2765C15.7466 12.9905 16.1267 13.3843 16.1267 13.8683V21.1355C16.1315 21.3639 16.0416 21.5837 15.8773 21.7516C15.7165 21.9195 15.4972 22.0109 15.2753 22.0109H11.2521V26H16.2766C17.4039 26 18.531 25.4272 19.2182 24.5C19.5875 24.0134 19.837 23.4356 19.9424 22.827C19.9809 22.6097 20 22.3788 20 22.1405V12.8608C20 12.788 20 12.7164 19.9953 12.6435L19.9965 12.6423ZM3.72723 9.00007C2.59401 9.00007 1.46678 9.57542 0.777256 10.5026C0.410308 10.9953 0.160879 11.5731 0.0577503 12.1744C0.0181776 12.3991 -0.00220848 12.63 0.000189871 12.8608V22.1393C-0.00220848 22.3726 0.0181776 22.6035 0.0577503 22.8257C0.160879 23.4319 0.412706 24.0098 0.779654 24.4987C1.46917 25.426 2.59401 25.9988 3.72363 25.9988H8.74818V22.0096H4.71534C4.49591 22.0096 4.28245 21.9158 4.12176 21.7503C3.96107 21.5849 3.86993 21.3614 3.87473 21.1343V13.8683C3.87473 13.3843 4.25487 12.9905 4.72495 12.9905H8.74818V9.00007H3.72723Z" fill="#EB6223"/>
</svg>
